<?xml version="1.0" encoding="UTF-8"?>
<!DOCTYPE svg PUBLIC "-//W3C//DTD SVG 1.1//EN" "http://www.w3.org/Graphics/SVG/1.1/DTD/svg11.dtd">
<svg version="1.1" xmlns="http://www.w3.org/2000/svg" x="0" y="0" width="612" height="612" viewBox="0, 0, 612, 612">
  <g id="Layer_1">
    <path d="M306,0 C474.988,0 612,137.012 612,306 C612,474.988 474.988,612 306,612 C137.012,612 0,474.988 0,306 C0,137.012 137.012,0 306,0 z M306,554.625 C443.088,554.625 554.625,443.088 554.625,306 C554.625,168.912 443.088,57.375 306,57.375 C168.912,57.375 57.375,168.912 57.375,306 C57.375,443.088 168.912,554.625 306,554.625 z M415.812,172.125 C431.648,172.125 444.5,184.977 444.5,200.812 C444.5,209.189 440.866,216.648 435.147,221.869 L435.205,221.946 L343.52,306 L435.206,390.035 L435.148,390.111 C440.867,395.351 444.501,402.83 444.501,411.187 C444.501,427.023 431.649,439.875 415.813,439.875 C408.335,439.875 401.603,436.95 396.478,432.264 L396.42,432.34 L281.67,327.152 C275.76,321.701 272.375,314.051 272.375,306 C272.375,297.949 275.76,290.299 281.67,284.848 L396.419,179.66 L396.477,179.737 C401.602,175.051 408.334,172.125 415.812,172.125 z M285.812,172.125 C301.648,172.125 314.5,184.977 314.5,200.812 C314.5,209.189 310.866,216.648 305.147,221.869 L305.205,221.946 L213.52,306 L305.206,390.035 L305.148,390.111 C310.867,395.351 314.501,402.83 314.501,411.187 C314.501,427.023 301.649,439.875 285.813,439.875 C278.335,439.875 271.603,436.95 266.478,432.264 L266.42,432.34 L151.67,327.152 C145.76,321.701 142.375,314.051 142.375,306 C142.375,297.949 145.76,290.299 151.67,284.848 L266.419,179.66 L266.477,179.737 C271.602,175.051 278.334,172.125 285.812,172.125 z" fill="#000000"/>
  </g>
</svg>
