<?xml version="1.0" encoding="UTF-8"?>
<!DOCTYPE svg PUBLIC "-//W3C//DTD SVG 1.1//EN" "http://www.w3.org/Graphics/SVG/1.1/DTD/svg11.dtd">
<svg version="1.1" xmlns="http://www.w3.org/2000/svg" x="0" y="0" width="612" height="612" viewBox="0, 0, 612, 612">
  <g id="Layer_1">
    <path d="M306,0 C137.012,0 0,137.012 0,306 C0,474.988 137.012,612 306,612 C474.988,612 612,474.988 612,306 C612,137.012 474.988,0 306,0 z M306,554.625 C168.912,554.625 57.375,443.088 57.375,306 C57.375,168.912 168.912,57.375 306,57.375 C443.088,57.375 554.625,168.912 554.625,306 C554.625,443.088 443.088,554.625 306,554.625 z M196.188,172.125 C180.352,172.125 167.5,184.977 167.5,200.812 C167.5,209.189 171.134,216.648 176.853,221.869 L176.795,221.946 L268.48,306 L176.794,390.035 L176.852,390.111 C171.133,395.351 167.499,402.83 167.499,411.187 C167.499,427.023 180.351,439.875 196.187,439.875 C203.665,439.875 210.397,436.95 215.522,432.264 L215.58,432.34 L330.33,327.152 C336.24,321.701 339.625,314.051 339.625,306 C339.625,297.949 336.24,290.299 330.33,284.848 L215.581,179.66 L215.523,179.737 C210.398,175.051 203.666,172.125 196.188,172.125 z M326.188,172.125 C310.352,172.125 297.5,184.977 297.5,200.812 C297.5,209.189 301.134,216.648 306.853,221.869 L306.795,221.946 L398.48,306 L306.794,390.035 L306.852,390.111 C301.133,395.351 297.499,402.83 297.499,411.187 C297.499,427.023 310.351,439.875 326.187,439.875 C333.665,439.875 340.397,436.95 345.522,432.264 L345.58,432.34 L460.33,327.152 C466.24,321.701 469.625,314.051 469.625,306 C469.625,297.949 466.24,290.299 460.33,284.848 L345.581,179.66 L345.523,179.737 C340.398,175.051 333.666,172.125 326.188,172.125 z" fill="#000000"/>
  </g>
</svg>
