<?xml version="1.0" encoding="UTF-8" ?>
<svg xmlns="http://www.w3.org/2000/svg" version="1.1"
	 viewBox="0 0 240 240">

	<!--
		Letter height:	240
		Letter width:	140
		Small radius:	30
		Big radius:		70
		Cap radius:		20
	-->

	<!-- S -->
	<path fill="rgb(150,0,0)"
		  d="M 100 70 a 30,30 0 1,0 -30 30 a 70,70 0 1,1 -70,70
		  a 20,20 0 0,1 40 0 a 30,30 0 1,0 30 -30 a 70,70 0 1,1 70 -70
		  a 20,20 0 0,1 -40 0 Z" />



	<!-- R -->
	<path fill="rgb(0,0,150)"
		  d="M 100 170 l 0 -100 a 70,70 0 1,1 140 0 a 70,70 0 0,1 -25 50 a 70,70 0 0,1 25 50
		  l 0 50 a 20,20 0 0,1 -40 0 l 0 -50 a 30,30 0 0,0 -30 -30
		  l -30 0 l 0 30 a 20,20 0 0,1 -40 0 z m 40 -70 l 30 0
		  a 30,30 0 1,0 -30 -30 Z"/>

	<!-- F -->
	<path fill="rgb(0,160,0)"
		  d="M 100 170 l 0 -100 a 70,70 0 0,1 140 0
		  a 20,20 0 0,1 -40 0 a 30,30 0 0,0 -60 0 l 0 30
		  l 30 0
		  a 20,20 0 0,1 0 40 l -30 0 l 0 30 a 20,20 0 0,1 -40 0 Z"/>

	<!-- J -->
	<path fill="rgb(200,200,0)"
		  d="M 100 70 l 0 100 a 30,30 0 0,1 -60 0 a 20,20 0 0,0 -40 0
		  a 70,70 0 0,0 140 0 l 0 -100 a 20,20 0 0,0 -40 0 Z"
			/>

</svg>
