<?xml version="1.0" encoding="UTF-8"?>
<!DOCTYPE svg PUBLIC "-//W3C//DTD SVG 1.1//EN" "http://www.w3.org/Graphics/SVG/1.1/DTD/svg11.dtd">
<svg version="1.1" xmlns="http://www.w3.org/2000/svg" x="0" y="0" width="715.568" height="715.568"
	 viewBox="0, 0, 715.568, 715.568">
  <g id="Layer_1">
    <path d="M614.941,111.806 L491.952,111.806 L491.952,44.722 C491.952,20.035 471.917,-0.001 447.23,-0.001 L268.337,-0.001 C243.65,-0.001 223.614,20.035 223.614,44.722 L223.614,111.807 L100.626,111.807 C82.11,111.807 67.083,126.812 67.083,145.35 C67.083,163.887 82.11,178.892 100.626,178.892 L111.807,178.892 L111.807,670.846 C111.807,695.556 131.843,715.569 156.53,715.569 L559.038,715.569 C583.725,715.569 603.761,695.533 603.761,670.846 L603.761,178.892 L614.942,178.892 C633.457,178.892 648.485,163.887 648.485,145.349 C648.483,126.811 633.456,111.806 614.941,111.806 z M177.232,649.749 L177.232,180.158 L323.002,179.63 L323.002,649.749 z M392.564,649.749 L392.564,180.158 L538.334,179.63 L538.334,649.749 z M290.699,67.083 L424.867,67.083 L424.867,111.806 L290.699,111.806 L290.699,67.083 z" fill="#FFFFFF"/>
  </g>
</svg>
