<?xml version="1.0" encoding="UTF-8"?>
<!DOCTYPE svg PUBLIC "-//W3C//DTD SVG 1.1//EN" "http://www.w3.org/Graphics/SVG/1.1/DTD/svg11.dtd">
<svg version="1.1" xmlns="http://www.w3.org/2000/svg" x="0" y="0" width="715.568" height="715.568"
	 viewBox="0, 0, 753.23, 753.23">
  <g id="Layer_1">
    <path d="M647.307,117.691 L517.845,117.691 L517.845,47.076 C517.845,21.089 496.755,-0.001 470.769,-0.001 L282.46,-0.001 C256.474,-0.001 235.383,21.089 235.383,47.076 L235.383,117.692 L105.922,117.692 C86.432,117.692 70.614,133.486 70.614,153 C70.614,172.513 86.432,188.308 105.922,188.308 L117.692,188.308 L117.692,706.154 C117.692,732.165 138.782,753.231 164.769,753.231 L588.461,753.231 C614.448,753.231 635.538,732.141 635.538,706.154 L635.538,188.307 L647.308,188.307 C666.797,188.307 682.616,172.513 682.616,152.999 C682.614,133.485 666.796,117.691 647.307,117.691 z M186.56,683.947 L186.56,189.64 L340.002,189.084 L340.002,683.947 z M413.226,683.947 L413.226,189.64 L566.668,189.084 L566.668,683.947 z M305.999,70.614 L447.229,70.614 L447.229,117.691 L305.999,117.691 L305.999,70.614 z" fill="#000000"/>
  </g>
</svg>
